{"title":"Churchill's Leopards (1970)","uid":8040950,"size":1407098065,"categoryP":"video","categoryS":"movies","magnet":"?xt=urn:btih:ee5a871657d8172398c335caae7d43698bbe5e59&amp;dn=Churchill%27s+Leopards+%281970%29&amp;tr=udp%3A%2F%2Ftracker.openbittorrent.com%3A80&amp;tr=udp%3A%2F%2Fopen.demonii.com%3A1337&amp;tr=udp%3A%2F%2Ftracker.coppersurfer.tk%3A6969&amp;tr=udp%3A%2F%2Fexodus.desync.com%3A6969","seeders":1,"leechers":1,"uploader":"RadioResearch","files":3,"time":1358627953,"description":"SEEDBOX SUPPORTED!!!!!\n\n*******************************************************************************\n                             Churchill's Leopards\n*******************************************************************************\n\n-------------------------------------------------------------------------------\n                              General Information\n-------------------------------------------------------------------------------\nType.................: Movie\nPlatform.............: AVI\n\n\n\nVideo Format.........: AVI\nVideo Bitrate........: 2000\nResolution...........: 720 x 540\nColor................: 8 bit\nFPS..................: 29.97\nSource...............: DVD 4x3\nOriginal Format......: NTSC\nGenre................: War\nIMDb Rating..........: 4.6\nMovie Information....: http://www.imdb.com/title/tt0065975/\n\n-------------------------------------------------------------------------------\n                               Post Information\n-------------------------------------------------------------------------------\nPosted by............: RadioResearch\nPosted on............: 1/19/2013\n\n-------------------------------------------------------------------------------\n                                 Release Notes\n-------------------------------------------------------------------------------\nA relatively obscure Klaus Kinski WWII spaghetti war movie.  Kinski plays a \nGerman SS Captain who suspects that an officer (Richard Harrison) in command of \na dam that serves as a vital supply route to Normandy may not be the loyal \nGerman that he appears to be.  In fact, he's a British officer whose mission is \nto assist British commandoes and the French resistance in the destruction of the \ndam in the days before D-Day.\n\n\n\n-------------------------------------------------------------------------------\nGenerated with Cool NFO Creator - http://fly.to/coolbeans\n-------------------------------------------------------------------------------\nGeneral\nComplete name                            : G:AVIChurchill's Leopards (1970)Churchills_Leopards_(1970).avi\nFormat                                   : AVI\nFormat/Info                              : Audio Video Interleave\nFormat profile                           : OpenDML\nFile size                                : 1.31 GiB\nDuration                                 : 1h 24mn\nOverall bit rate                         : 2 231 Kbps\nMovie name                               : UNDEFINED\nWriting application                      : MEncoder 5.0\nWriting library                          : [= DigiArty videodll! =]\nID                                       : 0\nFormat                                   : MPEG-4 Visual\nFormat profile                           : Simple@L1\nFormat settings, BVOP                    : No\nFormat settings, QPel                    : No\nFormat settings, GMC                     : No warppoints\nFormat settings, Matrix                  : Default (H.263)\nCodec ID                                 : DX50\nCodec ID/Hint                            : DivX 5\nDuration                                 : 1h 24mn\nBit rate                                 : 2 000 Kbps\nWidth                                    : 720 pixels\nHeight                                   : 540 pixels\nDisplay aspect ratio                     : 4:3\nFrame rate                               : 29.970 fps\nColor space                              : YUV\nChroma subsampling                       : 4:2:0\nBit depth                                : 8 bits\nScan type                                : Progressive\nCompression mode                         : Lossy\nBits/(Pixel*Frame)                       : 0.172\nStream size                              : 1.17 GiB (90%)\nWriting library                          : Lavc54.71.100\n\nAudio\nID                                       : 1\nFormat                                   : AC-3\nFormat/Info                              : Audio Coding 3\nMode extension                           : CM (complete main)\nFormat settings, Endianness              : Big\nCodec ID                                 : 2000\nDuration                                 : 1h 24mn\nBit rate mode                            : Constant\nBit rate                                 : 224 Kbps\nChannel(s)                               : 2 channels\nChannel positions                        : Front: L R\nSampling rate                            : 48.0 KHz\nBit depth                                : 16 bits\nCompression mode                         : Lossy\nStream size                              : 135 MiB (10%)\nAlignment                                : Split accross interleaves\nInterleave, duration                     : 500 ms (14.98 video frames)\nInterleave, preload duration             : 500 ms\n\n","torrent":{"xt":"urn:btih:ee5a871657d8172398c335caae7d43698bbe5e59","amp;dn":"Churchill%27s+Leopards+%281970%29","amp;tr":["udp%3A%2F%2Ftracker.openbittorrent.com%3A80","udp%3A%2F%2Fopen.demonii.com%3A1337","udp%3A%2F%2Ftracker.coppersurfer.tk%3A6969","udp%3A%2F%2Fexodus.desync.com%3A6969"],"infoHash":"ee5a871657d8172398c335caae7d43698bbe5e59","infoHashBuffer":{"type":"Buffer","data":[238,90,135,22,87,216,23,35,152,195,53,202,174,125,67,105,139,190,94,89]},"announce":[],"urlList":[]}}